<svg version="1.1" id="Layer_1" xmlns="http://www.w3.org/2000/svg" xmlns:xlink="http://www.w3.org/1999/xlink" x="0px" y="0px"
	 width="100%" viewBox="0 0 1600 1289" enable-background="new 0 0 1600 1289" xml:space="preserve">
<path fill="#FFFFFF" opacity="1.000000" stroke="none" 
	d="
M917.000000,1290.000000 
	C611.333374,1290.000000 306.166779,1290.000000 1.000123,1290.000000 
	C1.000082,860.333435 1.000082,430.666931 1.000041,1.000296 
	C534.333069,1.000197 1067.666138,1.000197 1600.999512,1.000099 
	C1600.999634,430.666382 1600.999634,860.332764 1600.999756,1289.999512 
	C1373.166626,1290.000000 1145.333374,1290.000000 917.000000,1290.000000 
M1201.500000,196.837234 
	C939.193848,196.837234 676.887634,196.829727 414.581451,196.890503 
	C409.286713,196.891724 403.925232,197.294846 398.708679,198.180710 
	C370.981628,202.889221 344.464233,211.151520 319.453247,224.344421 
	C289.416107,240.188522 263.577057,261.104645 242.721558,287.745728 
	C210.732162,328.609406 194.032364,375.017059 194.475250,427.267639 
	C194.671585,450.430298 194.523605,473.595947 194.505783,496.760254 
	C194.415253,614.399109 194.250641,732.038147 194.427307,849.676575 
	C194.435547,855.152161 196.451462,861.231079 199.291885,865.975586 
	C206.166672,877.458862 217.522049,881.012939 230.361816,881.012146 
	C495.501434,880.994873 760.641052,881.024536 1025.780640,880.976318 
	C1074.755981,880.967407 1123.732910,880.845886 1172.706177,880.431641 
	C1210.293091,880.113831 1245.813477,870.970947 1279.436035,854.190552 
	C1313.327637,837.275879 1341.751465,813.810181 1364.436890,783.496460 
	C1394.089355,743.873169 1409.117188,699.261292 1409.140747,649.745544 
	C1409.204590,515.259277 1409.171509,380.772949 1409.118530,246.286682 
	C1409.116943,242.326828 1408.775879,238.309769 1408.061035,234.417099 
	C1404.153687,213.141403 1381.760864,196.361206 1362.980591,196.599213 
	C1309.494751,197.277069 1255.994507,196.837234 1201.500000,196.837234 
M703.508423,1019.502136 
	C703.508423,1045.411621 703.508423,1071.321045 703.508423,1097.332520 
	C709.409851,1097.332520 714.527466,1097.332520 720.184814,1097.332520 
	C720.184814,1080.522217 720.184814,1063.859985 720.184814,1047.197754 
	C726.312134,1057.562378 731.655090,1068.043335 736.669800,1078.678833 
	C737.830200,1081.140137 738.935791,1082.533813 741.726868,1082.003296 
	C744.966919,1081.387451 749.032959,1083.817871 751.005249,1078.735596 
	C752.847717,1073.988037 755.431824,1069.528564 757.685669,1064.940186 
	C760.737122,1058.728149 763.785095,1052.514160 766.834595,1046.300903 
	C767.175415,1046.392944 767.516296,1046.484863 767.857178,1046.576904 
	C767.857178,1063.437134 767.857178,1080.297363 767.857178,1097.320312 
	C773.438110,1097.320312 778.538086,1097.320312 783.900513,1097.320312 
	C783.900513,1068.925171 783.900513,1040.674683 783.900513,1011.844910 
	C779.124390,1011.844910 774.343262,1011.684143 769.588318,1011.965332 
	C768.489746,1012.030273 767.091248,1013.399719 766.492737,1014.521912 
	C762.224854,1022.524658 758.125000,1030.617188 753.978455,1038.684448 
	C750.723022,1045.018066 747.477234,1051.356689 743.909485,1058.312378 
	C736.272888,1043.415771 729.158813,1029.444214 721.911499,1015.542297 
	C721.159241,1014.099365 719.694763,1012.122620 718.423706,1012.015259 
	C713.529114,1011.601746 708.578918,1011.847656 703.508362,1011.847656 
	C703.508362,1014.505310 703.508362,1016.501831 703.508423,1019.502136 
M1122.682129,1012.036560 
	C1117.908081,1012.036560 1113.134033,1012.036560 1108.283936,1012.036560 
	C1108.283936,1040.559326 1108.283936,1068.789185 1108.283936,1097.211304 
	C1113.949463,1097.211304 1119.329712,1097.211304 1125.190674,1097.211304 
	C1125.190674,1080.097656 1125.190674,1063.258911 1125.190674,1045.379639 
	C1135.746338,1062.136230 1145.654663,1077.943970 1155.689941,1093.670654 
	C1156.664062,1095.197266 1158.309937,1097.115356 1159.839111,1097.308960 
	C1163.876099,1097.819824 1168.020264,1097.481934 1172.199951,1097.481934 
	C1172.199951,1068.611084 1172.199951,1040.393555 1172.199951,1012.157593 
	C1166.678345,1012.157593 1161.454346,1012.157593 1155.749756,1012.157593 
	C1155.749756,1029.610718 1155.749756,1046.748047 1155.749756,1064.734375 
	C1144.573608,1046.809082 1133.921753,1029.724609 1122.682129,1012.036560 
M1361.999146,1048.473755 
	C1361.999146,1047.712891 1361.999146,1046.952026 1361.999146,1044.833374 
	C1372.577515,1061.715088 1382.386475,1077.479492 1392.363403,1093.136963 
	C1393.485107,1094.897339 1395.399902,1096.991333 1397.219360,1097.294189 
	C1401.059448,1097.933472 1405.080078,1097.488647 1409.248413,1097.488647 
	C1409.248413,1068.711060 1409.248413,1040.495605 1409.248413,1012.120178 
	C1403.820923,1012.120178 1398.588989,1012.120178 1392.966553,1012.120178 
	C1392.966553,1029.440674 1392.966553,1046.483765 1392.966553,1064.666138 
	C1391.927612,1063.074707 1391.493286,1062.433228 1391.082642,1061.776978 
	C1381.279419,1046.109985 1371.506104,1030.424072 1361.624512,1014.806641 
	C1360.845337,1013.575378 1359.380493,1012.086914 1358.123413,1011.976196 
	C1354.038574,1011.616394 1349.902222,1011.841675 1345.815674,1011.841675 
	C1345.815674,1040.607300 1345.815674,1068.830566 1345.815674,1097.077881 
	C1351.331543,1097.077881 1356.528442,1097.077881 1361.999268,1097.077881 
	C1361.999268,1080.869995 1361.999268,1065.074463 1361.999146,1048.473755 
M1238.209961,1096.037964 
	C1244.743652,1093.466309 1249.202148,1088.704590 1251.940674,1082.407593 
	C1255.996948,1073.081055 1256.340942,1063.215454 1255.857788,1053.074219 
	C1245.365845,1053.074219 1235.131958,1053.074219 1224.800781,1053.074219 
	C1224.800781,1058.051147 1224.800781,1062.787720 1224.800781,1068.062988 
	C1229.628662,1068.062988 1234.182495,1068.062988 1239.033447,1068.062988 
	C1238.615723,1069.929321 1238.340332,1071.218506 1238.037964,1072.501343 
	C1236.246460,1080.103394 1231.905029,1083.778564 1224.657715,1083.837036 
	C1217.724731,1083.892944 1210.941162,1079.417725 1210.452881,1072.440796 
	C1209.635254,1060.756104 1209.693970,1048.931274 1210.499756,1037.242432 
	C1210.954712,1030.642212 1216.542358,1026.302490 1221.951416,1025.999146 
	C1231.505127,1025.463623 1234.895142,1027.545776 1238.132568,1035.582397 
	C1238.597778,1036.737549 1239.923340,1038.293335 1240.931152,1038.355347 
	C1245.691772,1038.648071 1250.480469,1038.485840 1255.259766,1038.485840 
	C1254.760254,1025.531982 1244.918335,1013.226318 1230.729736,1011.376160 
	C1212.540283,1009.004333 1196.475586,1016.122314 1193.295410,1035.531128 
	C1191.648682,1045.581543 1191.640869,1056.019287 1191.954590,1066.249512 
	C1192.810181,1094.136841 1215.410767,1103.514648 1238.209961,1096.037964 
M1069.000732,1021.531738 
	C1069.000732,1034.019653 1069.083008,1046.508301 1068.955444,1058.994873 
	C1068.911621,1063.290039 1068.677002,1067.637573 1067.943726,1071.859497 
	C1066.550659,1079.879639 1062.020020,1083.703125 1054.494019,1083.837280 
	C1045.837158,1083.991699 1040.764526,1080.295166 1039.072876,1072.215088 
	C1038.432495,1069.156738 1038.218262,1065.962524 1038.201050,1062.828125 
	C1038.116211,1047.343628 1038.168823,1031.858521 1038.151855,1016.373535 
	C1038.150391,1014.938660 1038.001221,1013.503906 1037.928223,1012.204285 
	C1032.021606,1012.204285 1026.478271,1012.204285 1020.844360,1012.204285 
	C1020.844360,1031.047852 1020.591003,1049.529907 1020.963928,1067.999146 
	C1021.122131,1075.833374 1023.454895,1083.227661 1029.172974,1089.228760 
	C1037.743286,1098.222900 1048.509033,1099.388550 1059.916748,1098.146484 
	C1073.257080,1096.693970 1083.860962,1087.864746 1084.922241,1074.623169 
	C1086.577637,1053.966553 1086.471069,1033.168823 1087.117676,1012.216858 
	C1080.545044,1012.216858 1074.856079,1012.216858 1069.000732,1012.216858 
	C1069.000732,1015.243958 1069.000732,1017.892639 1069.000732,1021.531738 
M1289.502441,1097.491577 
	C1302.576660,1097.491577 1315.651001,1097.491577 1328.685547,1097.491577 
	C1328.685547,1092.098511 1328.685547,1087.530884 1328.685547,1082.557129 
	C1316.630737,1082.557129 1304.886719,1082.557129 1293.229248,1082.557129 
	C1293.229248,1075.202026 1293.229248,1068.264160 1293.229248,1060.937500 
	C1303.858887,1060.937500 1314.266113,1060.937500 1324.720215,1060.937500 
	C1324.720215,1055.660034 1324.720215,1050.784058 1324.720215,1045.679321 
	C1314.049194,1045.679321 1303.763672,1045.679321 1293.251709,1045.679321 
	C1293.251709,1039.385376 1293.251709,1033.336182 1293.251709,1026.893555 
	C1305.237793,1026.893555 1316.977295,1026.893555 1328.759033,1026.893555 
	C1328.759033,1021.754761 1328.759033,1017.013306 1328.759033,1012.125977 
	C1310.794434,1012.125977 1293.071167,1012.125977 1275.300049,1012.125977 
	C1275.300049,1040.630249 1275.300049,1068.844849 1275.300049,1097.491577 
	C1279.897461,1097.491577 1284.201050,1097.491577 1289.502441,1097.491577 
M838.505371,1045.837524 
	C833.740662,1045.837524 828.975952,1045.837524 824.200317,1045.837524 
	C824.200317,1039.262573 824.200317,1033.324341 824.200317,1026.990845 
	C836.136292,1026.990845 847.879761,1026.990845 859.802246,1026.990845 
	C859.802246,1021.849731 859.802246,1017.108154 859.802246,1012.102051 
	C842.037598,1012.102051 824.469238,1012.102051 806.787354,1012.102051 
	C806.787354,1040.540039 806.787354,1068.768921 806.787354,1097.108154 
	C824.602722,1097.108154 842.136658,1097.108154 859.704834,1097.108154 
	C859.704834,1092.149658 859.704834,1087.581909 859.704834,1082.595947 
	C847.668701,1082.595947 835.922974,1082.595947 824.216187,1082.595947 
	C824.216187,1075.231689 824.216187,1068.292725 824.216187,1060.969849 
	C834.838867,1060.969849 845.253113,1060.969849 855.815552,1060.969849 
	C855.815552,1055.712280 855.815552,1050.847534 855.815552,1045.837524 
	C850.147217,1045.837524 844.825378,1045.837524 838.505371,1045.837524 
M992.209717,1031.792480 
	C995.382019,1029.524292 998.554321,1027.256104 1001.935425,1024.838623 
	C992.188721,1011.674377 979.006287,1009.753113 964.729980,1011.364319 
	C957.839233,1012.142090 951.447998,1014.519775 947.104431,1020.430969 
	C937.121216,1034.017334 943.256897,1053.036743 959.564087,1058.946289 
	C965.617554,1061.140137 971.899292,1062.738281 977.858276,1065.148804 
	C983.989319,1067.628906 985.898438,1071.261597 984.948303,1076.715820 
	C984.259583,1080.669922 979.907104,1083.506226 974.195618,1083.846558 
	C965.969360,1084.336792 958.831604,1082.098877 953.386230,1075.309814 
	C948.864075,1078.476685 944.620483,1081.448608 940.182617,1084.556641 
	C946.262024,1092.334961 953.839783,1096.333984 962.806458,1097.694336 
	C973.274292,1099.282349 983.781799,1099.692383 993.079529,1093.500610 
	C1006.468689,1084.584106 1006.463928,1058.845703 989.723145,1052.110596 
	C986.062744,1050.637939 982.317993,1049.376587 978.628845,1047.973755 
	C973.721313,1046.107422 968.684814,1044.497925 963.976807,1042.214966 
	C959.973022,1040.273438 958.817688,1035.986328 960.500977,1032.435181 
	C961.777710,1029.741455 965.083984,1026.735718 967.881470,1026.278076 
	C975.988708,1024.951294 983.854187,1025.986694 988.651367,1034.408936 
	C989.822632,1033.594238 990.753296,1032.946899 992.209717,1031.792480 
M416.162689,1025.505005 
	C416.162689,1021.062195 416.162689,1016.619446 416.162689,1012.185425 
	C412.428467,1012.185425 409.214813,1012.185425 405.602264,1012.185425 
	C405.602264,1024.432373 405.602264,1036.334106 405.602264,1048.284424 
	C393.255310,1048.284424 381.317322,1048.284424 368.863281,1048.284424 
	C368.863281,1036.012573 368.863281,1023.958374 368.863281,1012.221130 
	C365.102722,1012.221130 361.865601,1012.221130 358.925049,1012.221130 
	C358.925049,1040.830933 358.925049,1069.055908 358.925049,1097.300049 
	C362.457214,1097.300049 365.571411,1097.300049 369.184326,1097.300049 
	C369.184326,1084.223755 369.184326,1071.328003 369.184326,1058.465088 
	C381.592285,1058.465088 393.496613,1058.465088 405.995300,1058.465088 
	C405.995300,1071.624756 405.995300,1084.495361 405.995300,1097.190674 
	C409.688568,1097.190674 412.774475,1097.190674 416.162689,1097.190674 
	C416.162689,1073.428589 416.162689,1049.965576 416.162689,1025.505005 
M891.500061,1097.491577 
	C904.245178,1097.491577 916.990295,1097.491577 929.678406,1097.491577 
	C929.678406,1092.083740 929.678406,1087.513916 929.678406,1082.679932 
	C917.747131,1082.679932 906.135559,1082.679932 894.044922,1082.679932 
	C894.044922,1059.005127 894.044922,1035.598633 894.044922,1012.095947 
	C887.982544,1012.095947 882.407776,1012.095947 876.815796,1012.095947 
	C876.815796,1040.588989 876.815796,1068.822388 876.815796,1097.491577 
	C881.574402,1097.491577 886.037476,1097.491577 891.500061,1097.491577 
M219.546478,1045.034668 
	C214.259491,1041.353394 212.368988,1036.335327 214.038162,1030.413330 
	C215.514648,1025.174927 220.360779,1021.646606 226.709930,1021.004456 
	C236.368607,1020.027649 244.420441,1022.810364 250.212631,1031.173828 
	C253.216690,1029.071655 255.969666,1027.145142 258.878510,1025.109619 
	C254.446198,1018.558350 248.956970,1014.422729 241.737869,1012.566956 
	C230.681290,1009.724670 219.914505,1009.806946 210.462753,1016.992004 
	C203.270432,1022.459534 201.829407,1030.433838 203.205078,1038.912720 
	C204.752441,1048.449829 211.086334,1054.056030 219.794220,1056.870850 
	C225.737152,1058.791748 232.034348,1059.587524 238.109253,1061.137085 
	C245.319397,1062.976196 249.507355,1068.244263 249.503281,1075.007080 
	C249.499481,1081.303711 246.341324,1085.997803 240.142319,1087.475708 
	C236.188797,1088.418335 231.958282,1088.498779 227.857101,1088.457397 
	C220.167526,1088.380005 214.606476,1083.996704 209.735306,1078.269043 
	C206.675354,1080.438843 203.876053,1082.423828 201.079803,1084.406616 
	C210.096588,1098.641846 229.371429,1100.505981 242.594330,1097.128174 
	C253.008408,1094.468018 259.870728,1086.156738 260.147369,1076.271973 
	C260.505615,1063.469482 255.854630,1056.356079 244.193604,1052.571167 
	C236.247787,1049.992065 228.169083,1047.822266 219.546478,1045.034668 
M608.491577,1082.279907 
	C608.491577,1074.341187 608.491577,1066.402466 608.491577,1058.052734 
	C621.234070,1058.052734 633.473511,1058.052734 645.781860,1058.052734 
	C645.781860,1054.696289 645.781860,1051.763184 645.781860,1048.508423 
	C634.940125,1048.508423 624.301025,1048.217651 613.690430,1048.641602 
	C608.998169,1048.829102 608.023865,1047.151611 608.283569,1043.021851 
	C608.596069,1038.050049 608.477295,1033.048950 608.483154,1028.060547 
	C608.490845,1021.492371 608.464844,1021.491882 615.104614,1021.491699 
	C626.355225,1021.491272 637.605774,1021.491577 648.898621,1021.491577 
	C648.898621,1017.967346 648.898621,1015.057861 648.898621,1012.039429 
	C631.890869,1012.039429 615.147705,1012.039429 598.322083,1012.039429 
	C598.322083,1040.612793 598.322083,1068.982910 598.322083,1097.174072 
	C615.384583,1097.174072 632.124512,1097.174072 648.819641,1097.174072 
	C648.819641,1093.779541 648.819641,1090.714478 648.819641,1087.366211 
	C635.188232,1087.366211 621.897705,1087.366211 608.491455,1087.366211 
	C608.491455,1085.791382 608.491455,1084.505615 608.491577,1082.279907 
M504.457062,1063.466675 
	C504.457062,1046.372681 504.457062,1029.278809 504.457062,1012.096313 
	C500.678253,1012.096313 497.432800,1012.096313 493.837311,1012.096313 
	C493.837311,1018.644958 493.924042,1024.942749 493.819366,1031.237305 
	C493.598053,1044.542358 493.607727,1057.863647 492.891693,1071.144287 
	C492.320038,1081.747070 485.548187,1088.318481 474.906006,1088.722534 
	C464.740692,1089.108398 457.167236,1085.441895 454.622559,1074.465942 
	C453.731995,1070.624634 453.265961,1066.604980 453.226379,1062.660522 
	C453.070923,1047.162598 453.169098,1031.662109 453.151978,1016.162537 
	C453.150421,1014.742493 452.998566,1013.322632 452.932678,1012.182495 
	C449.160492,1012.182495 445.902832,1012.182495 442.835236,1012.182495 
	C442.835236,1031.848267 442.299133,1051.188232 443.025909,1070.480713 
	C443.501373,1083.102417 449.331329,1093.568115 462.444122,1096.982666 
	C475.525970,1100.389160 488.409332,1099.707520 497.733337,1087.858154 
	C503.063965,1081.083740 504.462219,1072.900024 504.457062,1063.466675 
M277.508453,1049.513184 
	C277.672760,1055.998291 277.359283,1062.538330 278.095978,1068.957764 
	C279.907135,1084.739868 286.682281,1096.622314 304.543457,1098.440552 
	C323.763214,1100.397217 337.855652,1089.159546 338.610565,1071.129150 
	C335.355225,1071.129150 332.107483,1071.129150 329.072052,1071.129150 
	C327.854065,1074.040161 326.922668,1076.707520 325.657532,1079.205933 
	C322.086273,1086.258057 315.776276,1088.815308 308.381683,1088.765381 
	C301.103882,1088.716187 294.840424,1086.020996 291.874634,1078.901978 
	C290.184692,1074.845337 288.985687,1070.371460 288.654541,1066.003052 
	C287.813599,1054.910645 286.900421,1043.662842 290.877380,1032.927368 
	C295.924652,1019.302734 313.810028,1016.038818 323.263489,1027.122437 
	C326.050476,1030.390015 327.508911,1034.790649 329.575043,1038.669922 
	C332.543365,1038.669922 335.757599,1038.669922 338.987579,1038.669922 
	C337.139069,1022.366394 328.602142,1012.919556 312.965607,1011.306091 
	C297.212311,1009.680603 286.646149,1014.175537 281.156769,1028.100708 
	C278.670746,1034.407104 278.648682,1041.684937 277.508453,1049.513184 
M576.498535,1097.491577 
	C578.264099,1097.491577 580.029663,1097.491577 581.852417,1097.491577 
	C581.852417,1093.887939 581.852417,1090.823853 581.852417,1087.397217 
	C568.168396,1087.397217 554.794556,1087.397217 540.928345,1087.397217 
	C540.928345,1061.961792 540.928345,1036.942017 540.928345,1012.106201 
	C537.325500,1012.106201 534.226196,1012.106201 531.211365,1012.106201 
	C531.211365,1040.702271 531.211365,1069.027832 531.211365,1097.491577 
	C546.223267,1097.491577 560.861450,1097.491577 576.498535,1097.491577 
z"/>
<path fill="#000000" opacity="1.000000" stroke="none" 
	d="
M1202.000000,196.837234 
	C1255.994507,196.837234 1309.494751,197.277069 1362.980591,196.599213 
	C1381.760864,196.361206 1404.153687,213.141403 1408.061035,234.417099 
	C1408.775879,238.309769 1409.116943,242.326828 1409.118530,246.286682 
	C1409.171509,380.772949 1409.204590,515.259277 1409.140747,649.745544 
	C1409.117188,699.261292 1394.089355,743.873169 1364.436890,783.496460 
	C1341.751465,813.810181 1313.327637,837.275879 1279.436035,854.190552 
	C1245.813477,870.970947 1210.293091,880.113831 1172.706177,880.431641 
	C1123.732910,880.845886 1074.755981,880.967407 1025.780640,880.976318 
	C760.641052,881.024536 495.501434,880.994873 230.361816,881.012146 
	C217.522049,881.012939 206.166672,877.458862 199.291885,865.975586 
	C196.451462,861.231079 194.435547,855.152161 194.427307,849.676575 
	C194.250641,732.038147 194.415253,614.399109 194.505783,496.760254 
	C194.523605,473.595947 194.671585,450.430298 194.475250,427.267639 
	C194.032364,375.017059 210.732162,328.609406 242.721558,287.745728 
	C263.577057,261.104645 289.416107,240.188522 319.453247,224.344421 
	C344.464233,211.151520 370.981628,202.889221 398.708679,198.180710 
	C403.925232,197.294846 409.286713,196.891724 414.581451,196.890503 
	C676.887634,196.829727 939.193848,196.837234 1202.000000,196.837234 
M1306.500244,238.488327 
	C1206.189453,238.488327 1105.878662,238.476654 1005.567871,238.516754 
	C999.420044,238.519211 993.264404,238.801834 987.125916,239.175308 
	C963.893433,240.588821 941.673645,246.263733 920.651367,256.139771 
	C887.858032,271.545715 861.400330,294.299530 841.655273,324.884521 
	C823.016296,353.756226 812.736572,385.320709 812.639038,419.529358 
	C812.266113,550.332642 812.603577,681.137756 812.335999,811.941528 
	C812.304138,827.527222 822.704102,838.146606 838.680237,838.112366 
	C939.823975,837.895874 1040.968506,838.058228 1142.112671,837.950439 
	C1160.075073,837.931335 1178.060791,837.687317 1195.992798,836.735535 
	C1220.140625,835.453857 1242.881592,828.241577 1264.312134,817.394836 
	C1288.047607,805.381531 1308.472168,789.003357 1325.188843,768.135132 
	C1351.110107,735.776245 1365.730347,698.998108 1365.855591,657.488159 
	C1366.252930,525.851868 1366.007202,394.213684 1365.995728,262.576233 
	C1365.994507,248.098129 1356.466675,238.553726 1341.992554,238.497345 
	C1330.495239,238.452545 1318.997681,238.488358 1306.500244,238.488327 
M389.381378,453.789093 
	C385.322357,467.274200 381.263367,480.759308 377.204376,494.244415 
	C376.872162,494.148651 376.539978,494.052887 376.207794,493.957123 
	C368.788483,452.200775 361.369171,410.444458 353.982147,368.869781 
	C339.702484,368.869781 325.809631,368.869781 311.489349,368.869781 
	C325.572632,431.814545 339.551514,494.292847 353.547119,556.846008 
	C366.231964,556.846008 378.390625,556.947632 390.542389,556.704407 
	C391.905029,556.677185 394.011536,554.952087 394.455902,553.585938 
	C405.934937,518.295166 417.230133,482.944550 428.584808,447.613251 
	C429.973328,443.292847 431.518707,439.022888 433.285583,433.871765 
	C437.451752,446.687256 441.306519,458.468719 445.111969,470.266113 
	C454.105103,498.146240 463.042450,526.044556 472.160065,553.883789 
	C472.568420,555.130676 474.510864,556.693726 475.765167,556.717468 
	C487.260620,556.935791 498.763611,556.934814 510.259003,556.714966 
	C511.473328,556.691711 513.473511,555.029358 513.728882,553.832886 
	C520.544678,521.898682 527.174561,489.924835 533.846619,457.959930 
	C537.324646,441.297180 540.823120,424.638672 544.269653,408.182007 
	C561.362122,408.182007 578.087708,408.182007 595.213013,408.182007 
	C595.213013,458.084503 595.213013,507.652344 595.213013,557.093872 
	C609.175293,557.093872 622.727356,557.093872 636.580811,557.093872 
	C636.580811,507.219208 636.580811,457.771667 636.580811,407.847504 
	C654.793335,407.847504 672.702393,407.847504 690.675415,407.847504 
	C690.675415,394.496552 690.675415,381.626312 690.675415,368.736267 
	C631.248840,368.736267 572.155029,368.736267 512.757996,368.736267 
	C505.367706,410.780518 498.011810,452.628845 490.655914,494.477173 
	C490.251740,494.458130 489.847565,494.439056 489.443359,494.420013 
	C476.492920,452.448212 463.542480,410.476410 450.642792,368.669037 
	C438.574493,368.669037 426.959625,368.669037 415.253693,368.669037 
	C406.728394,396.903412 398.248138,424.988708 389.381378,453.789093 
M586.861206,664.320618 
	C586.861206,641.069885 586.861206,617.819153 586.861206,594.402344 
	C580.173828,594.402344 574.106995,594.402344 567.453491,594.402344 
	C567.453491,596.619995 567.460876,598.577087 567.452332,600.534119 
	C567.350586,623.837524 567.692139,647.154175 566.996094,670.439880 
	C566.477173,687.803040 549.416748,697.182800 533.675903,689.666870 
	C524.494446,685.282959 522.283447,676.781189 522.045898,668.147827 
	C521.418884,645.358459 521.653870,622.545410 521.547607,599.741760 
	C521.539307,597.960632 521.546509,596.179443 521.546509,594.436035 
	C514.908569,594.436035 508.838287,594.436035 502.453491,594.436035 
	C502.453491,616.354370 502.324005,637.976929 502.536316,659.596130 
	C502.596222,665.693909 503.084961,671.906067 504.375458,677.848938 
	C507.252960,691.100037 514.232666,701.722412 527.895081,705.424683 
	C535.423157,707.464600 543.651733,708.109314 551.463806,707.653992 
	C566.033081,706.804749 577.046631,699.498169 582.273438,685.516846 
	C584.673828,679.095764 585.374756,672.039307 586.861206,664.320618 
M341.500916,594.149170 
	C335.554932,594.149170 329.608948,594.149170 323.458130,594.149170 
	C323.458130,632.004272 323.458130,669.332581 323.458130,706.634888 
	C329.699463,706.634888 335.630188,706.634888 341.991302,706.634888 
	C341.991302,693.029724 341.991302,679.631775 341.991302,665.529663 
	C350.689758,665.529663 358.984253,665.950134 367.222260,665.446838 
	C387.781799,664.190674 399.227081,654.377869 402.554565,635.788025 
	C406.141144,615.750488 394.030029,598.277039 373.779266,595.587158 
	C363.471252,594.217957 352.934204,594.573364 341.500916,594.149170 
M634.226929,707.358093 
	C643.466370,706.985229 652.983337,707.882141 661.879211,705.937500 
	C674.751648,703.123474 682.952942,694.141296 684.627380,680.770081 
	C686.196533,668.240234 683.644958,656.582520 671.331055,650.219788 
	C664.375977,646.625916 656.522278,644.783997 649.103943,642.069397 
	C643.878540,640.157166 638.447327,638.586060 633.576294,635.985657 
	C628.175659,633.102478 625.841248,628.063660 626.501587,621.733276 
	C626.994446,617.008606 629.098083,613.453796 633.458801,611.635071 
	C640.615784,608.650208 648.214294,608.243774 655.250610,611.155701 
	C660.536865,613.343262 665.084900,617.314575 670.277405,620.697510 
	C674.205505,617.859497 678.700317,614.612000 683.306702,611.283936 
	C682.286011,609.820435 681.705566,608.816772 680.964233,607.950684 
	C667.182861,591.848938 649.268982,590.618469 630.435425,594.856812 
	C624.966309,596.087708 619.146606,599.364990 615.266907,603.410522 
	C600.820801,618.473999 606.296875,643.796875 625.616272,652.963440 
	C630.209290,655.142700 635.334229,656.181213 640.167419,657.878418 
	C646.665344,660.160217 653.387329,662.032410 659.508301,665.090820 
	C664.874634,667.772217 666.519348,673.151672 665.757874,679.117249 
	C665.002869,685.032715 661.738708,688.747437 656.012207,690.300598 
	C641.717957,694.177612 629.219116,691.565674 619.280823,679.748108 
	C614.373657,683.133545 609.668884,686.379395 604.579773,689.890381 
	C611.980225,699.942017 621.729919,705.088440 634.226929,707.358093 
M440.557465,641.500305 
	C440.557465,625.762512 440.557465,610.024719 440.557465,594.320618 
	C433.838501,594.320618 427.881073,594.320618 421.759003,594.320618 
	C421.759003,631.900085 421.759003,669.288452 421.759003,706.532349 
	C444.815948,706.532349 467.555054,706.532349 490.185211,706.532349 
	C490.185211,700.964783 490.185211,695.743164 490.185211,690.203491 
	C473.542084,690.203491 457.270142,690.203491 440.557434,690.203491 
	C440.557434,674.080017 440.557434,658.290161 440.557465,641.500305 
z"/>
<path fill="#000000" opacity="1.000000" stroke="none" 
	d="
M703.508423,1019.000244 
	C703.508362,1016.501831 703.508362,1014.505310 703.508362,1011.847656 
	C708.578918,1011.847656 713.529114,1011.601746 718.423706,1012.015259 
	C719.694763,1012.122620 721.159241,1014.099365 721.911499,1015.542297 
	C729.158813,1029.444214 736.272888,1043.415771 743.909485,1058.312378 
	C747.477234,1051.356689 750.723022,1045.018066 753.978455,1038.684448 
	C758.125000,1030.617188 762.224854,1022.524658 766.492737,1014.521912 
	C767.091248,1013.399719 768.489746,1012.030273 769.588318,1011.965332 
	C774.343262,1011.684143 779.124390,1011.844910 783.900513,1011.844910 
	C783.900513,1040.674683 783.900513,1068.925171 783.900513,1097.320312 
	C778.538086,1097.320312 773.438110,1097.320312 767.857178,1097.320312 
	C767.857178,1080.297363 767.857178,1063.437134 767.857178,1046.576904 
	C767.516296,1046.484863 767.175415,1046.392944 766.834595,1046.300903 
	C763.785095,1052.514160 760.737122,1058.728149 757.685669,1064.940186 
	C755.431824,1069.528564 752.847717,1073.988037 751.005249,1078.735596 
	C749.032959,1083.817871 744.966919,1081.387451 741.726868,1082.003296 
	C738.935791,1082.533813 737.830200,1081.140137 736.669800,1078.678833 
	C731.655090,1068.043335 726.312134,1057.562378 720.184814,1047.197754 
	C720.184814,1063.859985 720.184814,1080.522217 720.184814,1097.332520 
	C714.527466,1097.332520 709.409851,1097.332520 703.508423,1097.332520 
	C703.508423,1071.321045 703.508423,1045.411621 703.508423,1019.000244 
z"/>
<path fill="#000000" opacity="1.000000" stroke="none" 
	d="
M1122.976074,1012.338379 
	C1133.921753,1029.724609 1144.573608,1046.809082 1155.749756,1064.734375 
	C1155.749756,1046.748047 1155.749756,1029.610718 1155.749756,1012.157593 
	C1161.454346,1012.157593 1166.678345,1012.157593 1172.199951,1012.157593 
	C1172.199951,1040.393555 1172.199951,1068.611084 1172.199951,1097.481934 
	C1168.020264,1097.481934 1163.876099,1097.819824 1159.839111,1097.308960 
	C1158.309937,1097.115356 1156.664062,1095.197266 1155.689941,1093.670654 
	C1145.654663,1077.943970 1135.746338,1062.136230 1125.190674,1045.379639 
	C1125.190674,1063.258911 1125.190674,1080.097656 1125.190674,1097.211304 
	C1119.329712,1097.211304 1113.949463,1097.211304 1108.283936,1097.211304 
	C1108.283936,1068.789185 1108.283936,1040.559326 1108.283936,1012.036560 
	C1113.134033,1012.036560 1117.908081,1012.036560 1122.976074,1012.338379 
z"/>
<path fill="#000000" opacity="1.000000" stroke="none" 
	d="
M1361.999268,1048.876221 
	C1361.999268,1065.074463 1361.999268,1080.869995 1361.999268,1097.077881 
	C1356.528442,1097.077881 1351.331543,1097.077881 1345.815674,1097.077881 
	C1345.815674,1068.830566 1345.815674,1040.607300 1345.815674,1011.841675 
	C1349.902222,1011.841675 1354.038574,1011.616394 1358.123413,1011.976196 
	C1359.380493,1012.086914 1360.845337,1013.575378 1361.624512,1014.806641 
	C1371.506104,1030.424072 1381.279419,1046.109985 1391.082642,1061.776978 
	C1391.493286,1062.433228 1391.927612,1063.074707 1392.966553,1064.666138 
	C1392.966553,1046.483765 1392.966553,1029.440674 1392.966553,1012.120178 
	C1398.588989,1012.120178 1403.820923,1012.120178 1409.248413,1012.120178 
	C1409.248413,1040.495605 1409.248413,1068.711060 1409.248413,1097.488647 
	C1405.080078,1097.488647 1401.059448,1097.933472 1397.219360,1097.294189 
	C1395.399902,1096.991333 1393.485107,1094.897339 1392.363403,1093.136963 
	C1382.386475,1077.479492 1372.577515,1061.715088 1361.999146,1044.833374 
	C1361.999146,1046.952026 1361.999146,1047.712891 1361.999268,1048.876221 
z"/>
<path fill="#000000" opacity="1.000000" stroke="none" 
	d="
M1237.823975,1096.142334 
	C1215.410767,1103.514648 1192.810181,1094.136841 1191.954590,1066.249512 
	C1191.640869,1056.019287 1191.648682,1045.581543 1193.295410,1035.531128 
	C1196.475586,1016.122314 1212.540283,1009.004333 1230.729736,1011.376160 
	C1244.918335,1013.226318 1254.760254,1025.531982 1255.259766,1038.485840 
	C1250.480469,1038.485840 1245.691772,1038.648071 1240.931152,1038.355347 
	C1239.923340,1038.293335 1238.597778,1036.737549 1238.132568,1035.582397 
	C1234.895142,1027.545776 1231.505127,1025.463623 1221.951416,1025.999146 
	C1216.542358,1026.302490 1210.954712,1030.642212 1210.499756,1037.242432 
	C1209.693970,1048.931274 1209.635254,1060.756104 1210.452881,1072.440796 
	C1210.941162,1079.417725 1217.724731,1083.892944 1224.657715,1083.837036 
	C1231.905029,1083.778564 1236.246460,1080.103394 1238.037964,1072.501343 
	C1238.340332,1071.218506 1238.615723,1069.929321 1239.033447,1068.062988 
	C1234.182495,1068.062988 1229.628662,1068.062988 1224.800781,1068.062988 
	C1224.800781,1062.787720 1224.800781,1058.051147 1224.800781,1053.074219 
	C1235.131958,1053.074219 1245.365845,1053.074219 1255.857788,1053.074219 
	C1256.340942,1063.215454 1255.996948,1073.081055 1251.940674,1082.407593 
	C1249.202148,1088.704590 1244.743652,1093.466309 1237.823975,1096.142334 
z"/>
<path fill="#000000" opacity="1.000000" stroke="none" 
	d="
M1069.000732,1021.036560 
	C1069.000732,1017.892639 1069.000732,1015.243958 1069.000732,1012.216858 
	C1074.856079,1012.216858 1080.545044,1012.216858 1087.117676,1012.216858 
	C1086.471069,1033.168823 1086.577637,1053.966553 1084.922241,1074.623169 
	C1083.860962,1087.864746 1073.257080,1096.693970 1059.916748,1098.146484 
	C1048.509033,1099.388550 1037.743286,1098.222900 1029.172974,1089.228760 
	C1023.454895,1083.227661 1021.122131,1075.833374 1020.963928,1067.999146 
	C1020.591003,1049.529907 1020.844360,1031.047852 1020.844360,1012.204285 
	C1026.478271,1012.204285 1032.021606,1012.204285 1037.928223,1012.204285 
	C1038.001221,1013.503906 1038.150391,1014.938660 1038.151855,1016.373535 
	C1038.168823,1031.858521 1038.116211,1047.343628 1038.201050,1062.828125 
	C1038.218262,1065.962524 1038.432495,1069.156738 1039.072876,1072.215088 
	C1040.764526,1080.295166 1045.837158,1083.991699 1054.494019,1083.837280 
	C1062.020020,1083.703125 1066.550659,1079.879639 1067.943726,1071.859497 
	C1068.677002,1067.637573 1068.911621,1063.290039 1068.955444,1058.994873 
	C1069.083008,1046.508301 1069.000732,1034.019653 1069.000732,1021.036560 
z"/>
<path fill="#000000" opacity="1.000000" stroke="none" 
	d="
M1289.003418,1097.491577 
	C1284.201050,1097.491577 1279.897461,1097.491577 1275.300049,1097.491577 
	C1275.300049,1068.844849 1275.300049,1040.630249 1275.300049,1012.125977 
	C1293.071167,1012.125977 1310.794434,1012.125977 1328.759033,1012.125977 
	C1328.759033,1017.013306 1328.759033,1021.754761 1328.759033,1026.893555 
	C1316.977295,1026.893555 1305.237793,1026.893555 1293.251709,1026.893555 
	C1293.251709,1033.336182 1293.251709,1039.385376 1293.251709,1045.679321 
	C1303.763672,1045.679321 1314.049194,1045.679321 1324.720215,1045.679321 
	C1324.720215,1050.784058 1324.720215,1055.660034 1324.720215,1060.937500 
	C1314.266113,1060.937500 1303.858887,1060.937500 1293.229248,1060.937500 
	C1293.229248,1068.264160 1293.229248,1075.202026 1293.229248,1082.557129 
	C1304.886719,1082.557129 1316.630737,1082.557129 1328.685547,1082.557129 
	C1328.685547,1087.530884 1328.685547,1092.098511 1328.685547,1097.491577 
	C1315.651001,1097.491577 1302.576660,1097.491577 1289.003418,1097.491577 
z"/>
<path fill="#000000" opacity="1.000000" stroke="none" 
	d="
M839.004395,1045.837524 
	C844.825378,1045.837524 850.147217,1045.837524 855.815552,1045.837524 
	C855.815552,1050.847534 855.815552,1055.712280 855.815552,1060.969849 
	C845.253113,1060.969849 834.838867,1060.969849 824.216187,1060.969849 
	C824.216187,1068.292725 824.216187,1075.231689 824.216187,1082.595947 
	C835.922974,1082.595947 847.668701,1082.595947 859.704834,1082.595947 
	C859.704834,1087.581909 859.704834,1092.149658 859.704834,1097.108154 
	C842.136658,1097.108154 824.602722,1097.108154 806.787354,1097.108154 
	C806.787354,1068.768921 806.787354,1040.540039 806.787354,1012.102051 
	C824.469238,1012.102051 842.037598,1012.102051 859.802246,1012.102051 
	C859.802246,1017.108154 859.802246,1021.849731 859.802246,1026.990845 
	C847.879761,1026.990845 836.136292,1026.990845 824.200317,1026.990845 
	C824.200317,1033.324341 824.200317,1039.262573 824.200317,1045.837524 
	C828.975952,1045.837524 833.740662,1045.837524 839.004395,1045.837524 
z"/>
<path fill="#000000" opacity="1.000000" stroke="none" 
	d="
M991.946899,1032.045898 
	C990.753296,1032.946899 989.822632,1033.594238 988.651367,1034.408936 
	C983.854187,1025.986694 975.988708,1024.951294 967.881470,1026.278076 
	C965.083984,1026.735718 961.777710,1029.741455 960.500977,1032.435181 
	C958.817688,1035.986328 959.973022,1040.273438 963.976807,1042.214966 
	C968.684814,1044.497925 973.721313,1046.107422 978.628845,1047.973755 
	C982.317993,1049.376587 986.062744,1050.637939 989.723145,1052.110596 
	C1006.463928,1058.845703 1006.468689,1084.584106 993.079529,1093.500610 
	C983.781799,1099.692383 973.274292,1099.282349 962.806458,1097.694336 
	C953.839783,1096.333984 946.262024,1092.334961 940.182617,1084.556641 
	C944.620483,1081.448608 948.864075,1078.476685 953.386230,1075.309814 
	C958.831604,1082.098877 965.969360,1084.336792 974.195618,1083.846558 
	C979.907104,1083.506226 984.259583,1080.669922 984.948303,1076.715820 
	C985.898438,1071.261597 983.989319,1067.628906 977.858276,1065.148804 
	C971.899292,1062.738281 965.617554,1061.140137 959.564087,1058.946289 
	C943.256897,1053.036743 937.121216,1034.017334 947.104431,1020.430969 
	C951.447998,1014.519775 957.839233,1012.142090 964.729980,1011.364319 
	C979.006287,1009.753113 992.188721,1011.674377 1001.935425,1024.838623 
	C998.554321,1027.256104 995.382019,1029.524292 991.946899,1032.045898 
z"/>
<path fill="#000000" opacity="1.000000" stroke="none" 
	d="
M416.162689,1026.003906 
	C416.162689,1049.965576 416.162689,1073.428589 416.162689,1097.190674 
	C412.774475,1097.190674 409.688568,1097.190674 405.995300,1097.190674 
	C405.995300,1084.495361 405.995300,1071.624756 405.995300,1058.465088 
	C393.496613,1058.465088 381.592285,1058.465088 369.184326,1058.465088 
	C369.184326,1071.328003 369.184326,1084.223755 369.184326,1097.300049 
	C365.571411,1097.300049 362.457214,1097.300049 358.925049,1097.300049 
	C358.925049,1069.055908 358.925049,1040.830933 358.925049,1012.221130 
	C361.865601,1012.221130 365.102722,1012.221130 368.863281,1012.221130 
	C368.863281,1023.958374 368.863281,1036.012573 368.863281,1048.284424 
	C381.317322,1048.284424 393.255310,1048.284424 405.602264,1048.284424 
	C405.602264,1036.334106 405.602264,1024.432373 405.602264,1012.185425 
	C409.214813,1012.185425 412.428467,1012.185425 416.162689,1012.185425 
	C416.162689,1016.619446 416.162689,1021.062195 416.162689,1026.003906 
z"/>
<path fill="#000000" opacity="1.000000" stroke="none" 
	d="
M891.000366,1097.491577 
	C886.037476,1097.491577 881.574402,1097.491577 876.815796,1097.491577 
	C876.815796,1068.822388 876.815796,1040.588989 876.815796,1012.095947 
	C882.407776,1012.095947 887.982544,1012.095947 894.044922,1012.095947 
	C894.044922,1035.598633 894.044922,1059.005127 894.044922,1082.679932 
	C906.135559,1082.679932 917.747131,1082.679932 929.678406,1082.679932 
	C929.678406,1087.513916 929.678406,1092.083740 929.678406,1097.491577 
	C916.990295,1097.491577 904.245178,1097.491577 891.000366,1097.491577 
z"/>
<path fill="#000000" opacity="1.000000" stroke="none" 
	d="
M219.848129,1045.252075 
	C228.169083,1047.822266 236.247787,1049.992065 244.193604,1052.571167 
	C255.854630,1056.356079 260.505615,1063.469482 260.147369,1076.271973 
	C259.870728,1086.156738 253.008408,1094.468018 242.594330,1097.128174 
	C229.371429,1100.505981 210.096588,1098.641846 201.079803,1084.406616 
	C203.876053,1082.423828 206.675354,1080.438843 209.735306,1078.269043 
	C214.606476,1083.996704 220.167526,1088.380005 227.857101,1088.457397 
	C231.958282,1088.498779 236.188797,1088.418335 240.142319,1087.475708 
	C246.341324,1085.997803 249.499481,1081.303711 249.503281,1075.007080 
	C249.507355,1068.244263 245.319397,1062.976196 238.109253,1061.137085 
	C232.034348,1059.587524 225.737152,1058.791748 219.794220,1056.870850 
	C211.086334,1054.056030 204.752441,1048.449829 203.205078,1038.912720 
	C201.829407,1030.433838 203.270432,1022.459534 210.462753,1016.992004 
	C219.914505,1009.806946 230.681290,1009.724670 241.737869,1012.566956 
	C248.956970,1014.422729 254.446198,1018.558350 258.878510,1025.109619 
	C255.969666,1027.145142 253.216690,1029.071655 250.212631,1031.173828 
	C244.420441,1022.810364 236.368607,1020.027649 226.709930,1021.004456 
	C220.360779,1021.646606 215.514648,1025.174927 214.038162,1030.413330 
	C212.368988,1036.335327 214.259491,1041.353394 219.848129,1045.252075 
z"/>
<path fill="#000000" opacity="1.000000" stroke="none" 
	d="
M608.491516,1082.750000 
	C608.491455,1084.505615 608.491455,1085.791382 608.491455,1087.366211 
	C621.897705,1087.366211 635.188232,1087.366211 648.819641,1087.366211 
	C648.819641,1090.714478 648.819641,1093.779541 648.819641,1097.174072 
	C632.124512,1097.174072 615.384583,1097.174072 598.322083,1097.174072 
	C598.322083,1068.982910 598.322083,1040.612793 598.322083,1012.039429 
	C615.147705,1012.039429 631.890869,1012.039429 648.898621,1012.039429 
	C648.898621,1015.057861 648.898621,1017.967346 648.898621,1021.491577 
	C637.605774,1021.491577 626.355225,1021.491272 615.104614,1021.491699 
	C608.464844,1021.491882 608.490845,1021.492371 608.483154,1028.060547 
	C608.477295,1033.048950 608.596069,1038.050049 608.283569,1043.021851 
	C608.023865,1047.151611 608.998169,1048.829102 613.690430,1048.641602 
	C624.301025,1048.217651 634.940125,1048.508423 645.781860,1048.508423 
	C645.781860,1051.763184 645.781860,1054.696289 645.781860,1058.052734 
	C633.473511,1058.052734 621.234070,1058.052734 608.491577,1058.052734 
	C608.491577,1066.402466 608.491577,1074.341187 608.491516,1082.750000 
z"/>
<path fill="#000000" opacity="1.000000" stroke="none" 
	d="
M504.331116,1063.941650 
	C504.462219,1072.900024 503.063965,1081.083740 497.733337,1087.858154 
	C488.409332,1099.707520 475.525970,1100.389160 462.444122,1096.982666 
	C449.331329,1093.568115 443.501373,1083.102417 443.025909,1070.480713 
	C442.299133,1051.188232 442.835236,1031.848267 442.835236,1012.182495 
	C445.902832,1012.182495 449.160492,1012.182495 452.932678,1012.182495 
	C452.998566,1013.322632 453.150421,1014.742493 453.151978,1016.162537 
	C453.169098,1031.662109 453.070923,1047.162598 453.226379,1062.660522 
	C453.265961,1066.604980 453.731995,1070.624634 454.622559,1074.465942 
	C457.167236,1085.441895 464.740692,1089.108398 474.906006,1088.722534 
	C485.548187,1088.318481 492.320038,1081.747070 492.891693,1071.144287 
	C493.607727,1057.863647 493.598053,1044.542358 493.819366,1031.237305 
	C493.924042,1024.942749 493.837311,1018.644958 493.837311,1012.096313 
	C497.432800,1012.096313 500.678253,1012.096313 504.457062,1012.096313 
	C504.457062,1029.278809 504.457062,1046.372681 504.331116,1063.941650 
z"/>
<path fill="#000000" opacity="1.000000" stroke="none" 
	d="
M277.508667,1049.017578 
	C278.648682,1041.684937 278.670746,1034.407104 281.156769,1028.100708 
	C286.646149,1014.175537 297.212311,1009.680603 312.965607,1011.306091 
	C328.602142,1012.919556 337.139069,1022.366394 338.987579,1038.669922 
	C335.757599,1038.669922 332.543365,1038.669922 329.575043,1038.669922 
	C327.508911,1034.790649 326.050476,1030.390015 323.263489,1027.122437 
	C313.810028,1016.038818 295.924652,1019.302734 290.877380,1032.927368 
	C286.900421,1043.662842 287.813599,1054.910645 288.654541,1066.003052 
	C288.985687,1070.371460 290.184692,1074.845337 291.874634,1078.901978 
	C294.840424,1086.020996 301.103882,1088.716187 308.381683,1088.765381 
	C315.776276,1088.815308 322.086273,1086.258057 325.657532,1079.205933 
	C326.922668,1076.707520 327.854065,1074.040161 329.072052,1071.129150 
	C332.107483,1071.129150 335.355225,1071.129150 338.610565,1071.129150 
	C337.855652,1089.159546 323.763214,1100.397217 304.543457,1098.440552 
	C286.682281,1096.622314 279.907135,1084.739868 278.095978,1068.957764 
	C277.359283,1062.538330 277.672760,1055.998291 277.508667,1049.017578 
z"/>
<path fill="#000000" opacity="1.000000" stroke="none" 
	d="
M575.999146,1097.491577 
	C560.861450,1097.491577 546.223267,1097.491577 531.211365,1097.491577 
	C531.211365,1069.027832 531.211365,1040.702271 531.211365,1012.106201 
	C534.226196,1012.106201 537.325500,1012.106201 540.928345,1012.106201 
	C540.928345,1036.942017 540.928345,1061.961792 540.928345,1087.397217 
	C554.794556,1087.397217 568.168396,1087.397217 581.852417,1087.397217 
	C581.852417,1090.823853 581.852417,1093.887939 581.852417,1097.491577 
	C580.029663,1097.491577 578.264099,1097.491577 575.999146,1097.491577 
z"/>
<path fill="#FEFEFE" opacity="1.000000" stroke="none" 
	d="
M1307.000244,238.488358 
	C1318.997681,238.488358 1330.495239,238.452545 1341.992554,238.497345 
	C1356.466675,238.553726 1365.994507,248.098129 1365.995728,262.576233 
	C1366.007202,394.213684 1366.252930,525.851868 1365.855591,657.488159 
	C1365.730347,698.998108 1351.110107,735.776245 1325.188843,768.135132 
	C1308.472168,789.003357 1288.047607,805.381531 1264.312134,817.394836 
	C1242.881592,828.241577 1220.140625,835.453857 1195.992798,836.735535 
	C1178.060791,837.687317 1160.075073,837.931335 1142.112671,837.950439 
	C1040.968506,838.058228 939.823975,837.895874 838.680237,838.112366 
	C822.704102,838.146606 812.304138,827.527222 812.335999,811.941528 
	C812.603577,681.137756 812.266113,550.332642 812.639038,419.529358 
	C812.736572,385.320709 823.016296,353.756226 841.655273,324.884521 
	C861.400330,294.299530 887.858032,271.545715 920.651367,256.139771 
	C941.673645,246.263733 963.893433,240.588821 987.125916,239.175308 
	C993.264404,238.801834 999.420044,238.519211 1005.567871,238.516754 
	C1105.878662,238.476654 1206.189453,238.488327 1307.000244,238.488358 
M1195.499756,524.488281 
	C1208.744751,524.488281 1221.989746,524.488281 1235.354980,524.488281 
	C1235.354980,502.645508 1235.354980,481.531189 1235.354980,460.128113 
	C1168.236328,460.128113 1101.228760,460.128113 1034.229248,460.128113 
	C1034.229248,481.677002 1034.229248,503.016541 1034.229248,524.488342 
	C1087.912476,524.488342 1141.206055,524.488342 1195.499756,524.488281 
M1186.500000,615.160461 
	C1202.767944,615.160461 1219.035767,615.160461 1235.273804,615.160461 
	C1235.273804,593.463196 1235.273804,572.371216 1235.273804,551.156372 
	C1168.056519,551.156372 1101.054077,551.156372 1034.047363,551.156372 
	C1034.047363,572.559570 1034.047363,593.645386 1034.047363,615.160461 
	C1084.669312,615.160461 1135.084595,615.160461 1186.500000,615.160461 
M1233.171509,425.605347 
	C1229.901978,418.026123 1227.396118,409.994232 1223.221069,402.951782 
	C1210.203491,380.992981 1191.746948,368.781555 1164.962769,369.298157 
	C1123.148071,370.104675 1081.306274,369.511719 1039.475952,369.511719 
	C1037.711304,369.511719 1035.946655,369.511719 1034.082520,369.511719 
	C1034.082520,391.311615 1034.082520,412.556335 1034.082520,433.865387 
	C1101.205444,433.865387 1168.085205,433.865387 1235.402222,433.865387 
	C1234.671509,431.117584 1234.041992,428.750519 1233.171509,425.605347 
M1142.500000,641.839478 
	C1106.395874,641.839478 1070.291870,641.839478 1034.069946,641.839478 
	C1034.069946,663.253235 1034.069946,684.170776 1034.069946,705.321045 
	C1035.076294,705.385132 1035.869385,705.479797 1036.662598,705.479919 
	C1082.489258,705.487671 1128.316040,705.536377 1174.142334,705.404053 
	C1178.224365,705.392273 1182.411133,704.586365 1186.363403,703.483765 
	C1199.302490,699.874084 1209.189819,691.845886 1217.344238,681.401184 
	C1226.442505,669.747375 1232.161743,656.611389 1235.394531,641.839478 
	C1204.459839,641.839478 1173.979980,641.839478 1142.500000,641.839478 
M1008.160461,376.625549 
	C1008.160461,374.488403 1008.160461,372.351227 1008.160461,369.731964 
	C993.157837,373.086823 979.857666,378.715729 968.006592,387.909668 
	C951.928040,400.383240 943.247437,416.162842 943.425781,436.908478 
	C943.735168,472.890381 943.511841,508.876831 943.511841,544.861389 
	C943.511841,546.627441 943.511719,548.393555 943.511719,550.479187 
	C945.948486,550.479187 947.788513,550.700684 949.555176,550.435120 
	C953.797485,549.797363 958.074402,549.195435 962.215942,548.114014 
	C988.227112,541.321899 1008.584778,518.904236 1008.262634,490.048584 
	C1007.844299,452.569366 1008.160461,415.081909 1008.160461,376.625549 
z"/>
<path fill="#FBFBFB" opacity="1.000000" stroke="none" 
	d="
M389.574615,453.431580 
	C398.248138,424.988708 406.728394,396.903412 415.253693,368.669037 
	C426.959625,368.669037 438.574493,368.669037 450.642792,368.669037 
	C463.542480,410.476410 476.492920,452.448212 489.443359,494.420013 
	C489.847565,494.439056 490.251740,494.458130 490.655914,494.477173 
	C498.011810,452.628845 505.367706,410.780518 512.757996,368.736267 
	C572.155029,368.736267 631.248840,368.736267 690.675415,368.736267 
	C690.675415,381.626312 690.675415,394.496552 690.675415,407.847504 
	C672.702393,407.847504 654.793335,407.847504 636.580811,407.847504 
	C636.580811,457.771667 636.580811,507.219208 636.580811,557.093872 
	C622.727356,557.093872 609.175293,557.093872 595.213013,557.093872 
	C595.213013,507.652344 595.213013,458.084503 595.213013,408.182007 
	C578.087708,408.182007 561.362122,408.182007 544.269653,408.182007 
	C540.823120,424.638672 537.324646,441.297180 533.846619,457.959930 
	C527.174561,489.924835 520.544678,521.898682 513.728882,553.832886 
	C513.473511,555.029358 511.473328,556.691711 510.259003,556.714966 
	C498.763611,556.934814 487.260620,556.935791 475.765167,556.717468 
	C474.510864,556.693726 472.568420,555.130676 472.160065,553.883789 
	C463.042450,526.044556 454.105103,498.146240 445.111969,470.266113 
	C441.306519,458.468719 437.451752,446.687256 433.285583,433.871765 
	C431.518707,439.022888 429.973328,443.292847 428.584808,447.613251 
	C417.230133,482.944550 405.934937,518.295166 394.455902,553.585938 
	C394.011536,554.952087 391.905029,556.677185 390.542389,556.704407 
	C378.390625,556.947632 366.231964,556.846008 353.547119,556.846008 
	C339.551514,494.292847 325.572632,431.814545 311.489349,368.869781 
	C325.809631,368.869781 339.702484,368.869781 353.982147,368.869781 
	C361.369171,410.444458 368.788483,452.200775 376.207794,493.957123 
	C376.539978,494.052887 376.872162,494.148651 377.204376,494.244415 
	C381.263367,480.759308 385.322357,467.274200 389.574615,453.431580 
z"/>
<path fill="#F5F5F5" opacity="1.000000" stroke="none" 
	d="
M586.853760,664.795776 
	C585.374756,672.039307 584.673828,679.095764 582.273438,685.516846 
	C577.046631,699.498169 566.033081,706.804749 551.463806,707.653992 
	C543.651733,708.109314 535.423157,707.464600 527.895081,705.424683 
	C514.232666,701.722412 507.252960,691.100037 504.375458,677.848938 
	C503.084961,671.906067 502.596222,665.693909 502.536316,659.596130 
	C502.324005,637.976929 502.453491,616.354370 502.453491,594.436035 
	C508.838287,594.436035 514.908569,594.436035 521.546509,594.436035 
	C521.546509,596.179443 521.539307,597.960632 521.547607,599.741760 
	C521.653870,622.545410 521.418884,645.358459 522.045898,668.147827 
	C522.283447,676.781189 524.494446,685.282959 533.675903,689.666870 
	C549.416748,697.182800 566.477173,687.803040 566.996094,670.439880 
	C567.692139,647.154175 567.350586,623.837524 567.452332,600.534119 
	C567.460876,598.577087 567.453491,596.619995 567.453491,594.402344 
	C574.106995,594.402344 580.173828,594.402344 586.861206,594.402344 
	C586.861206,617.819153 586.861206,641.069885 586.853760,664.795776 
z"/>
<path fill="#F9F9F9" opacity="1.000000" stroke="none" 
	d="
M342.000793,594.149170 
	C352.934204,594.573364 363.471252,594.217957 373.779266,595.587158 
	C394.030029,598.277039 406.141144,615.750488 402.554565,635.788025 
	C399.227081,654.377869 387.781799,664.190674 367.222260,665.446838 
	C358.984253,665.950134 350.689758,665.529663 341.991302,665.529663 
	C341.991302,679.631775 341.991302,693.029724 341.991302,706.634888 
	C335.630188,706.634888 329.699463,706.634888 323.458130,706.634888 
	C323.458130,669.332581 323.458130,632.004272 323.458130,594.149170 
	C329.608948,594.149170 335.554932,594.149170 342.000793,594.149170 
M342.010773,634.496460 
	C342.010773,639.274902 342.010773,644.053345 342.010773,649.149536 
	C348.752899,649.149536 355.049530,649.404236 361.313385,649.060852 
	C365.564301,648.827942 369.962189,648.314575 373.952454,646.936646 
	C381.115601,644.462952 383.754364,638.364563 383.907806,631.320251 
	C384.054535,624.583923 383.303009,617.914124 376.253937,614.301270 
	C365.291901,608.682983 353.608643,611.900208 342.010773,610.910278 
	C342.010773,618.900452 342.010773,626.198853 342.010773,634.496460 
z"/>
<path fill="#F7F7F7" opacity="1.000000" stroke="none" 
	d="
M633.807373,707.228149 
	C621.729919,705.088440 611.980225,699.942017 604.579773,689.890381 
	C609.668884,686.379395 614.373657,683.133545 619.280823,679.748108 
	C629.219116,691.565674 641.717957,694.177612 656.012207,690.300598 
	C661.738708,688.747437 665.002869,685.032715 665.757874,679.117249 
	C666.519348,673.151672 664.874634,667.772217 659.508301,665.090820 
	C653.387329,662.032410 646.665344,660.160217 640.167419,657.878418 
	C635.334229,656.181213 630.209290,655.142700 625.616272,652.963440 
	C606.296875,643.796875 600.820801,618.473999 615.266907,603.410522 
	C619.146606,599.364990 624.966309,596.087708 630.435425,594.856812 
	C649.268982,590.618469 667.182861,591.848938 680.964233,607.950684 
	C681.705566,608.816772 682.286011,609.820435 683.306702,611.283936 
	C678.700317,614.612000 674.205505,617.859497 670.277405,620.697510 
	C665.084900,617.314575 660.536865,613.343262 655.250610,611.155701 
	C648.214294,608.243774 640.615784,608.650208 633.458801,611.635071 
	C629.098083,613.453796 626.994446,617.008606 626.501587,621.733276 
	C625.841248,628.063660 628.175659,633.102478 633.576294,635.985657 
	C638.447327,638.586060 643.878540,640.157166 649.103943,642.069397 
	C656.522278,644.783997 664.375977,646.625916 671.331055,650.219788 
	C683.644958,656.582520 686.196533,668.240234 684.627380,680.770081 
	C682.952942,694.141296 674.751648,703.123474 661.879211,705.937500 
	C652.983337,707.882141 643.466370,706.985229 633.807373,707.228149 
z"/>
<path fill="#F2F2F2" opacity="1.000000" stroke="none" 
	d="
M440.557434,642.000366 
	C440.557434,658.290161 440.557434,674.080017 440.557434,690.203491 
	C457.270142,690.203491 473.542084,690.203491 490.185211,690.203491 
	C490.185211,695.743164 490.185211,700.964783 490.185211,706.532349 
	C467.555054,706.532349 444.815948,706.532349 421.759003,706.532349 
	C421.759003,669.288452 421.759003,631.900085 421.759003,594.320618 
	C427.881073,594.320618 433.838501,594.320618 440.557465,594.320618 
	C440.557465,610.024719 440.557465,625.762512 440.557434,642.000366 
z"/>
<path fill="#000000" opacity="1.000000" stroke="none" 
	d="
M1194.999756,524.488281 
	C1141.206055,524.488342 1087.912476,524.488342 1034.229248,524.488342 
	C1034.229248,503.016541 1034.229248,481.677002 1034.229248,460.128113 
	C1101.228760,460.128113 1168.236328,460.128113 1235.354980,460.128113 
	C1235.354980,481.531189 1235.354980,502.645508 1235.354980,524.488281 
	C1221.989746,524.488281 1208.744751,524.488281 1194.999756,524.488281 
z"/>
<path fill="#000000" opacity="1.000000" stroke="none" 
	d="
M1186.000000,615.160461 
	C1135.084595,615.160461 1084.669312,615.160461 1034.047363,615.160461 
	C1034.047363,593.645386 1034.047363,572.559570 1034.047363,551.156372 
	C1101.054077,551.156372 1168.056519,551.156372 1235.273804,551.156372 
	C1235.273804,572.371216 1235.273804,593.463196 1235.273804,615.160461 
	C1219.035767,615.160461 1202.767944,615.160461 1186.000000,615.160461 
z"/>
<path fill="#000000" opacity="1.000000" stroke="none" 
	d="
M1233.291992,425.994385 
	C1234.041992,428.750519 1234.671509,431.117584 1235.402222,433.865387 
	C1168.085205,433.865387 1101.205444,433.865387 1034.082520,433.865387 
	C1034.082520,412.556335 1034.082520,391.311615 1034.082520,369.511719 
	C1035.946655,369.511719 1037.711304,369.511719 1039.475952,369.511719 
	C1081.306274,369.511719 1123.148071,370.104675 1164.962769,369.298157 
	C1191.746948,368.781555 1210.203491,380.992981 1223.221069,402.951782 
	C1227.396118,409.994232 1229.901978,418.026123 1233.291992,425.994385 
z"/>
<path fill="#000000" opacity="1.000000" stroke="none" 
	d="
M1143.000000,641.839478 
	C1173.979980,641.839478 1204.459839,641.839478 1235.394531,641.839478 
	C1232.161743,656.611389 1226.442505,669.747375 1217.344238,681.401184 
	C1209.189819,691.845886 1199.302490,699.874084 1186.363403,703.483765 
	C1182.411133,704.586365 1178.224365,705.392273 1174.142334,705.404053 
	C1128.316040,705.536377 1082.489258,705.487671 1036.662598,705.479919 
	C1035.869385,705.479797 1035.076294,705.385132 1034.069946,705.321045 
	C1034.069946,684.170776 1034.069946,663.253235 1034.069946,641.839478 
	C1070.291870,641.839478 1106.395874,641.839478 1143.000000,641.839478 
z"/>
<path fill="#000000" opacity="1.000000" stroke="none" 
	d="
M1008.160461,377.111786 
	C1008.160461,415.081909 1007.844299,452.569366 1008.262634,490.048584 
	C1008.584778,518.904236 988.227112,541.321899 962.215942,548.114014 
	C958.074402,549.195435 953.797485,549.797363 949.555176,550.435120 
	C947.788513,550.700684 945.948486,550.479187 943.511719,550.479187 
	C943.511719,548.393555 943.511841,546.627441 943.511841,544.861389 
	C943.511841,508.876831 943.735168,472.890381 943.425781,436.908478 
	C943.247437,416.162842 951.928040,400.383240 968.006592,387.909668 
	C979.857666,378.715729 993.157837,373.086823 1008.160461,369.731964 
	C1008.160461,372.351227 1008.160461,374.488403 1008.160461,377.111786 
z"/>
<path fill="#000000" opacity="1.000000" stroke="none" 
	d="
M342.010773,633.996826 
	C342.010773,626.198853 342.010773,618.900452 342.010773,610.910278 
	C353.608643,611.900208 365.291901,608.682983 376.253937,614.301270 
	C383.303009,617.914124 384.054535,624.583923 383.907806,631.320251 
	C383.754364,638.364563 381.115601,644.462952 373.952454,646.936646 
	C369.962189,648.314575 365.564301,648.827942 361.313385,649.060852 
	C355.049530,649.404236 348.752899,649.149536 342.010773,649.149536 
	C342.010773,644.053345 342.010773,639.274902 342.010773,633.996826 
z"/>
</svg>